<mxfile host="Electron" modified="2023-12-22T06:27:02.806Z" agent="Mozilla/5.0 (Macintosh; Intel Mac OS X 10_15_7) AppleWebKit/537.36 (KHTML, like Gecko) draw.io/22.1.11 Chrome/114.0.5735.289 Electron/25.9.8 Safari/537.36" etag="zf3qqz49Xrco06nObD2K" version="22.1.11" type="device">
  <diagram name="페이지-1" id="XSMIaWPgh3RuTYqMHrMg">
    <mxGraphModel dx="980" dy="894" grid="1" gridSize="10" guides="1" tooltips="1" connect="1" arrows="1" fold="1" page="1" pageScale="1" pageWidth="827" pageHeight="1169" math="0" shadow="0">
      <root>
        <mxCell id="0" />
        <mxCell id="1" parent="0" />
        <mxCell id="gCE08GDe8ofbjiNDUfjY-7" value="카프카 클러스터" style="rounded=1;whiteSpace=wrap;html=1;align=center;verticalAlign=top;" vertex="1" parent="1">
          <mxGeometry x="190" y="70" width="180" height="370" as="geometry" />
        </mxCell>
        <mxCell id="gCE08GDe8ofbjiNDUfjY-14" style="rounded=0;orthogonalLoop=1;jettySize=auto;html=1;entryX=0;entryY=0.5;entryDx=0;entryDy=0;endArrow=block;endFill=1;" edge="1" parent="1" source="gCE08GDe8ofbjiNDUfjY-1" target="gCE08GDe8ofbjiNDUfjY-10">
          <mxGeometry relative="1" as="geometry" />
        </mxCell>
        <mxCell id="gCE08GDe8ofbjiNDUfjY-1" value="브로커 1" style="rounded=0;whiteSpace=wrap;html=1;verticalAlign=top;fillColor=#f5f5f5;fontColor=#333333;strokeColor=#666666;" vertex="1" parent="1">
          <mxGeometry x="220" y="113" width="120" height="90" as="geometry" />
        </mxCell>
        <mxCell id="gCE08GDe8ofbjiNDUfjY-2" value="토픽 A&lt;br&gt;파티션 0" style="rounded=1;whiteSpace=wrap;html=1;fillColor=#f8cecc;strokeColor=#b85450;" vertex="1" parent="1">
          <mxGeometry x="230" y="143" width="100" height="50" as="geometry" />
        </mxCell>
        <mxCell id="gCE08GDe8ofbjiNDUfjY-15" style="rounded=0;orthogonalLoop=1;jettySize=auto;html=1;entryX=0;entryY=0.5;entryDx=0;entryDy=0;endArrow=block;endFill=1;" edge="1" parent="1" source="gCE08GDe8ofbjiNDUfjY-3" target="gCE08GDe8ofbjiNDUfjY-10">
          <mxGeometry relative="1" as="geometry" />
        </mxCell>
        <mxCell id="gCE08GDe8ofbjiNDUfjY-3" value="브로커 2" style="rounded=0;whiteSpace=wrap;html=1;verticalAlign=top;fillColor=#f5f5f5;fontColor=#333333;strokeColor=#666666;" vertex="1" parent="1">
          <mxGeometry x="220" y="223" width="120" height="90" as="geometry" />
        </mxCell>
        <mxCell id="gCE08GDe8ofbjiNDUfjY-4" value="토픽 A&lt;br&gt;파티션 1" style="rounded=1;whiteSpace=wrap;html=1;fillColor=#f8cecc;strokeColor=#b85450;" vertex="1" parent="1">
          <mxGeometry x="230" y="253" width="100" height="50" as="geometry" />
        </mxCell>
        <mxCell id="gCE08GDe8ofbjiNDUfjY-16" style="rounded=0;orthogonalLoop=1;jettySize=auto;html=1;entryX=0;entryY=0.5;entryDx=0;entryDy=0;endArrow=block;endFill=1;" edge="1" parent="1" source="gCE08GDe8ofbjiNDUfjY-5" target="gCE08GDe8ofbjiNDUfjY-10">
          <mxGeometry relative="1" as="geometry" />
        </mxCell>
        <mxCell id="gCE08GDe8ofbjiNDUfjY-5" value="브로커 3" style="rounded=0;whiteSpace=wrap;html=1;verticalAlign=top;fillColor=#f5f5f5;fontColor=#333333;strokeColor=#666666;" vertex="1" parent="1">
          <mxGeometry x="220" y="333" width="120" height="90" as="geometry" />
        </mxCell>
        <mxCell id="gCE08GDe8ofbjiNDUfjY-6" value="토픽 A&lt;br&gt;파티션 0" style="rounded=1;whiteSpace=wrap;html=1;fillColor=#f8cecc;strokeColor=#b85450;" vertex="1" parent="1">
          <mxGeometry x="230" y="363" width="100" height="50" as="geometry" />
        </mxCell>
        <mxCell id="gCE08GDe8ofbjiNDUfjY-12" style="rounded=0;orthogonalLoop=1;jettySize=auto;html=1;entryX=0;entryY=0.5;entryDx=0;entryDy=0;endArrow=block;endFill=1;" edge="1" parent="1" source="gCE08GDe8ofbjiNDUfjY-8" target="gCE08GDe8ofbjiNDUfjY-3">
          <mxGeometry relative="1" as="geometry" />
        </mxCell>
        <mxCell id="gCE08GDe8ofbjiNDUfjY-8" value="프로듀서" style="rounded=0;whiteSpace=wrap;html=1;" vertex="1" parent="1">
          <mxGeometry x="60" y="193" width="100" height="40" as="geometry" />
        </mxCell>
        <mxCell id="gCE08GDe8ofbjiNDUfjY-13" style="rounded=0;orthogonalLoop=1;jettySize=auto;html=1;endArrow=block;endFill=1;" edge="1" parent="1" source="gCE08GDe8ofbjiNDUfjY-9" target="gCE08GDe8ofbjiNDUfjY-5">
          <mxGeometry relative="1" as="geometry" />
        </mxCell>
        <mxCell id="gCE08GDe8ofbjiNDUfjY-9" value="프로듀서" style="rounded=0;whiteSpace=wrap;html=1;" vertex="1" parent="1">
          <mxGeometry x="60" y="303" width="100" height="40" as="geometry" />
        </mxCell>
        <mxCell id="gCE08GDe8ofbjiNDUfjY-10" value="컨슈머" style="rounded=0;whiteSpace=wrap;html=1;" vertex="1" parent="1">
          <mxGeometry x="414" y="233" width="100" height="40" as="geometry" />
        </mxCell>
        <mxCell id="gCE08GDe8ofbjiNDUfjY-11" style="rounded=0;orthogonalLoop=1;jettySize=auto;html=1;entryX=0.167;entryY=0.243;entryDx=0;entryDy=0;entryPerimeter=0;endArrow=block;endFill=1;" edge="1" parent="1" source="gCE08GDe8ofbjiNDUfjY-8" target="gCE08GDe8ofbjiNDUfjY-7">
          <mxGeometry relative="1" as="geometry" />
        </mxCell>
      </root>
    </mxGraphModel>
  </diagram>
</mxfile>
